<svg version="1.1" baseProfile="tiny" id="Layer_1" 
  xmlns="http://www.w3.org/2000/svg" 
  xmlns:xlink="http://www.w3.org/1999/xlink" x="0px" y="0px" width="65.8px" height="65.8px" viewBox="0 0 65.8 65.8" xml:space="preserve">
  <g>
    <path fill="none" d="M58.2,33.5c0-0.4,0-0.8-0.1-1.1c0,0,0-0.1,0-0.1c0-0.5-0.1-0.9-0.2-1.3c-0.5-2.9-2.3-5.7-4.9-8.1
		c-0.4-0.4-0.9-0.8-1.4-1.2c-5.2-4.1-11.7-6.5-18.8-6.5h0h0h0h0c-7.1,0-13.6,2.4-18.8,6.5c-0.5,0.4-0.9,0.8-1.4,1.2
		c-2.6,2.4-4.4,5.2-4.9,8.1c-0.1,0.4-0.1,0.8-0.2,1.3c0,0,0,0.1,0,0.1c0,0.3-0.1,0.7-0.1,1.1c0,0.2,0,1.8,0.4,3.5h0
		c0.5,2.1,1.6,4.5,4.1,5.6c1,0.5,2.1,0.7,3.4,0.7c0.3,0,0.5,0,0.8,0c1.3-0.1,2.6-0.5,3.5-1.1h0l0,0c0,0,0.1,0,0.1-0.1
		c0,0,0.1,0,0.1-0.1c1-0.7,1.6-1.9,1.6-3.3c0-0.4-0.1-0.9-0.2-1.3c0,0,0,0,0-0.1l0,0c0,0,0,0,0,0c0-0.1-0.1-0.2-0.1-0.3c0,0,0,0,0,0
		c-0.5-1.2-1.5-2.6-1-4.1c0.1-0.5,0.9-2,3-1.3c1,0.3,1.8,1,2.5,1.9c0.1,0.2,0.3,0.4,0.4,0.6c1.9,3.2,1.6,8.2-3,9.6c0,0,0,0-0.1,0
		C22,44.2,21.3,45,21.3,46c0,0,0,0,0,0.1c0,0,0,0.1,0,0.1c0,0.2,0,0.4,0.1,0.6c0.1,0.3,0.2,0.6,0.4,0.9c0,0,0,0,0,0l0,0
		c0.4,0.4,0.8,0.8,1.2,1.2c0.2,0.1,0.3,0.3,0.5,0.4c0.1,0.1,0.2,0.1,0.2,0.2c0.1,0,0.1,0.1,0.2,0.1c1.4,0.9,3,1.4,4.8,1.4
		c0.5,0,0.9,0,1.4-0.1c0.1,0,0.2,0,0.3-0.1c0.7-0.2,1.3-0.7,1.6-1.4v0c0-0.1,0.1-0.1,0.1-0.2c0,0,0,0,0,0c0-0.1,0-0.1,0.1-0.2
		c0,0,0,0,0,0c0,0,0,0,0,0c0-0.1,0-0.1,0-0.2c0,0,0,0,0,0c0-0.1,0-0.1,0-0.2v0v0v0v0v0V33.8v0v-1.2c0-0.2,0-0.3,0-0.5
		c0.1-0.8,0.4-1.4,0.7-1.4h0h0c0,0,0,0,0,0s0,0,0,0h0h0c0.3,0,0.6,0.6,0.7,1.4c0,0.2,0,0.3,0,0.5v1.2v0v14.5v0v0v0v0v0
		c0,0.1,0,0.2,0,0.2l0,0c0,0.1,0,0.1,0,0.2c0,0,0,0,0,0c0,0,0,0,0,0c0,0.1,0,0.1,0.1,0.2c0,0,0,0,0,0c0,0.1,0,0.1,0.1,0.2
		c0,0,0,0,0,0c0.3,0.7,0.9,1.2,1.6,1.4c0.1,0,0.2,0,0.3,0.1c0.5,0.1,0.9,0.1,1.4,0.1c1.7,0,3.4-0.5,4.8-1.4c0.1,0,0.1-0.1,0.2-0.1
		c0.1,0,0.2-0.1,0.2-0.2c0.2-0.1,0.3-0.2,0.5-0.4c0.4-0.4,0.8-0.8,1.2-1.2l0,0c0,0,0,0,0,0c0.2-0.3,0.4-0.5,0.4-0.9
		c0-0.2,0.1-0.4,0.1-0.6c0,0,0-0.1,0-0.1c0,0,0,0,0-0.1c-0.1-1-0.7-1.8-1.6-2.1c0,0,0,0-0.1,0c-4.7-1.5-4.9-6.5-3-9.6
		c0.1-0.2,0.3-0.4,0.4-0.6c0.7-0.9,1.5-1.5,2.4-1.9c2.1-0.7,2.8,0.8,3,1.3c0.5,1.5-0.5,2.9-1,4.1c0,0,0,0,0,0c0,0.1-0.1,0.2-0.1,0.3
		c0,0,0,0,0,0l0,0c0,0,0,0,0,0.1c-0.1,0.4-0.2,0.8-0.2,1.3c0,1.3,0.6,2.5,1.6,3.3c0,0,0.1,0,0.1,0.1c0,0,0.1,0,0.1,0.1l0,0h0
		c1,0.6,2.2,1,3.5,1.1c0.3,0,0.5,0,0.8,0c1.2,0,2.4-0.3,3.4-0.7c2.5-1,3.6-3.5,4.1-5.6h0C58.3,35.3,58.2,33.8,58.2,33.5z"/>
    <path fill="#3F4157" d="M65.8,32.9C65.8,14.7,51.1,0,32.9,0h0C14.7,0,0,14.7,0,32.9C0,51,14.7,65.8,32.9,65.8
		C51,65.8,65.8,51.1,65.8,32.9L65.8,32.9z M53.7,42.7c-1,0.5-2.1,0.7-3.4,0.7c-0.3,0-0.5,0-0.8,0c-1.3-0.1-2.6-0.5-3.5-1.1h0l0,0
		c0,0-0.1,0-0.1-0.1c0,0-0.1,0-0.1-0.1c-1-0.7-1.6-1.9-1.6-3.3c0-0.4,0.1-0.9,0.2-1.3c0,0,0,0,0-0.1l0,0c0,0,0,0,0,0
		c0-0.1,0.1-0.2,0.1-0.3c0,0,0,0,0,0c0.5-1.2,1.5-2.6,1-4.1c-0.1-0.5-0.9-2-3-1.3c-1,0.3-1.8,1-2.4,1.9c-0.1,0.2-0.3,0.4-0.4,0.6
		c-1.9,3.2-1.6,8.2,3,9.6c0,0,0,0,0.1,0c0.9,0.3,1.5,1.1,1.6,2.1c0,0,0,0,0,0.1c0,0,0,0.1,0,0.1c0,0.2,0,0.4-0.1,0.6
		c-0.1,0.3-0.2,0.6-0.4,0.9c0,0,0,0,0,0l0,0c-0.4,0.4-0.8,0.8-1.2,1.2c-0.2,0.1-0.3,0.3-0.5,0.4c-0.1,0.1-0.1,0.1-0.2,0.2
		c-0.1,0-0.1,0.1-0.2,0.1c-1.4,0.9-3,1.4-4.8,1.4c-0.5,0-0.9,0-1.4-0.1c-0.1,0-0.2,0-0.3-0.1c-0.7-0.2-1.3-0.7-1.6-1.4c0,0,0,0,0,0
		c0-0.1-0.1-0.1-0.1-0.2c0,0,0,0,0,0c0-0.1,0-0.1-0.1-0.2c0,0,0,0,0,0c0,0,0,0,0,0c0-0.1,0-0.1,0-0.2l0,0c0-0.1,0-0.1,0-0.2v0v0v0v0
		v0V33.8v0v-1.2c0-0.2,0-0.3,0-0.5c-0.1-0.8-0.4-1.4-0.7-1.4h0h0c0,0,0,0,0,0s0,0,0,0h0h0c-0.3,0-0.6,0.6-0.7,1.4c0,0.2,0,0.3,0,0.5
		v1.2v0v14.5v0v0v0v0v0c0,0.1,0,0.2,0,0.2c0,0,0,0,0,0c0,0.1,0,0.1,0,0.2c0,0,0,0,0,0c0,0,0,0,0,0c0,0.1,0,0.1-0.1,0.2c0,0,0,0,0,0
		c0,0.1,0,0.1-0.1,0.2v0c-0.3,0.7-0.9,1.2-1.6,1.4c-0.1,0-0.2,0-0.3,0.1c-0.5,0.1-0.9,0.1-1.4,0.1c-1.7,0-3.4-0.5-4.8-1.4
		c-0.1,0-0.1-0.1-0.2-0.1c-0.1,0-0.1-0.1-0.2-0.2c-0.2-0.1-0.3-0.2-0.5-0.4c-0.4-0.4-0.8-0.8-1.2-1.2l0,0c0,0,0,0,0,0
		c-0.2-0.3-0.4-0.5-0.4-0.9c0-0.2-0.1-0.4-0.1-0.6c0,0,0-0.1,0-0.1c0,0,0,0,0-0.1c0.1-1,0.7-1.8,1.6-2.1c0,0,0,0,0.1,0
		c4.7-1.5,4.9-6.5,3-9.6c-0.1-0.2-0.3-0.4-0.4-0.6c-0.7-0.9-1.5-1.5-2.5-1.9c-2-0.7-2.8,0.8-3,1.3c-0.5,1.5,0.5,2.9,1,4.1
		c0,0,0,0,0,0c0,0.1,0.1,0.2,0.1,0.3c0,0,0,0,0,0l0,0c0,0,0,0,0,0.1c0.1,0.4,0.2,0.8,0.2,1.3c0,1.3-0.6,2.5-1.6,3.3
		c0,0-0.1,0-0.1,0.1c0,0-0.1,0-0.1,0.1l0,0h0c-1,0.6-2.2,1-3.5,1.1c-0.3,0-0.5,0-0.8,0c-1.2,0-2.4-0.3-3.4-0.7
		c-2.5-1-3.6-3.5-4.1-5.6h0c-0.4-1.8-0.4-3.3-0.4-3.5c0-0.4,0-0.8,0.1-1.1c0,0,0-0.1,0-0.1c0-0.5,0.1-0.9,0.2-1.3
		c0.5-2.9,2.3-5.7,4.9-8.1c0.4-0.4,0.9-0.8,1.4-1.2c5.2-4.1,11.7-6.5,18.8-6.5h0h0h0h0c7.1,0,13.6,2.4,18.8,6.5
		c0.5,0.4,0.9,0.8,1.4,1.2c2.6,2.4,4.4,5.2,4.9,8.1c0.1,0.4,0.1,0.8,0.2,1.3c0,0,0,0.1,0,0.1c0,0.3,0.1,0.7,0.1,1.1
		c0,0.2,0,1.8-0.4,3.5h0C57.3,39.2,56.2,41.6,53.7,42.7z"/>
  </g>
</svg>
